# generated from PmQm by Jehee Lee
:FULLY-SPECIFIED
:DEGREES
171
root 78.69804493 18.3601 -90.8159774 -178.8151603 68.5948218 144.9917425
RightUpLeg -70.25551727 -17.01388016 16.54398001
RightLeg 136.4669263 0 0
RightFoot -37.75290781 -13.73463824 -17.46116031
RightToes 1.74622e-010 -3.18055e-015 8.94531e-016
Spine 53.35 -3.28285 -4.39385
Spine1 -11.732 -6.59357 14.9947
HEad -61.6323 1.54282 8.50428
LeftShoulder1 0 -2.69403e-036 -1.28585e-037
LeftArm 6.40153 -63.2872 -88.7345
LeftForeArm 14.4389 0.544023 2.59751
LeftHand -0.689062 1.73984 17.703
RightShoulder -2.48481e-017 0 -8.08114e-019
RightArm -12.2558 16.8626 93.0354
RightForeArm 25.3355 5.49345 -1.69136
RightHand 9.09846 -21.6591 -45.8898
LeftUpLeg -12.9954166 -14.95063584 20.96912855
LeftLeg 76.59997581 0 0
LeftFoot 6.92022555 -22.06786562 -26.11519352
LeftToes 4.94765e-010 2.02697e-011 4.00889e-011
172
root 79.81380835 18.79537282 -91.24454155 -176.3533264 70.6125189 145.2218309
RightUpLeg -68.12901059 -15.2618842 12.4841603
RightLeg 133.6798505 0 0
RightFoot -38.14173912 -6.603302989 -19.17687089
RightToes 1.74622e-010 -3.18055e-015 8.94531e-016
Spine 53.72614548 -2.502649015 -3.52129958
Spine1 -13.8270063 -5.240572925 15.72020972
HEad -63.00749173 0.1936995377 7.072530984
LeftShoulder1 0 -2.69403e-036 -1.28585e-037
LeftArm 6.354065677 -61.464858 -91.34761343
LeftForeArm 14.31426375 0.3342131301 1.88166328
LeftHand -1.354252405 1.089908511 25.85976707
RightShoulder -2.48481e-017 0 -8.08114e-019
RightArm -8.132936767 13.27464549 91.16172045
RightForeArm 23.56672821 8.891397573 -2.190946696
RightHand 8.520939421 -21.11021734 -44.29902798
LeftUpLeg -17.27103668 -13.56382185 20.51861903
LeftLeg 78.45688193 -0.7138177 1.822933693
LeftFoot 9.393759999 -20.75948021 -21.80907156
LeftToes 4.94765e-010 2.02697e-011 4.00889e-011
173
root 80.98450518 19.26724541 -91.62690255 -174.6533559 72.4388961 144.9715068
RightUpLeg -65.04458342 -13.81030426 9.46501722
RightLeg 129.9862833 0 0
RightFoot -39.06642836 -3.2907273 -20.9025227
RightToes 1.74622e-010 -3.18055e-015 8.94531e-016
Spine 53.8289371 -1.729777491 -2.459532563
Spine1 -15.13966706 -3.793195635 14.40946757
HEad -64.04320059 -2.033027925 7.395887217
LeftShoulder1 0 -2.69403e-036 -1.28585e-037
LeftArm 7.014636912 -59.30434668 -94.14178183
LeftForeArm 14.69112546 -0.02138338565 0.6862067671
LeftHand -2.012043541 0.3521755092 31.54119912
RightShoulder -2.48481e-017 0 -8.08114e-019
RightArm 1.131655342 8.159237797 89.08770112
RightForeArm 15.41119487 13.70124566 -6.22005011
RightHand 7.592646687 -20.16166334 -41.63486379
LeftUpLeg -21.87570876 -12.00622149 19.47920858
LeftLeg 82.72879749 -1.397583072 4.024120262
LeftFoot 8.40506056 -20.19919752 -16.09260239
LeftToes 4.94765e-010 2.02697e-011 4.00889e-011
174
root 82.10836995 19.70143443 -91.96937731 -173.7973488 74.17275911 144.0599322
RightUpLeg -62.03815992 -12.55157763 7.292241071
RightLeg 126.2263174 0 0
RightFoot -39.49586693 -2.521879918 -21.98293319
RightToes 1.74622e-010 -3.18055e-015 8.94531e-016
Spine 53.54695585 -0.8553611514 -1.833224177
Spine1 -15.8156246 -2.485710861 12.49125272
HEad -64.62054028 -4.165023633 8.889533652
LeftShoulder1 0 -2.69403e-036 -1.28585e-037
LeftArm 8.691947384 -57.73267793 -98.56554853
LeftForeArm 15.80245007 -0.1677504027 0.2473448264
LeftHand -2.397048887 -0.04322376299 34.22909867
RightShoulder -2.48481e-017 0 -8.08114e-019
RightArm 10.92157866 2.737501301 87.18507469
RightForeArm 4.668108364 17.16561628 -13.34914638
RightHand 6.970435759 -19.43247096 -39.91880898
LeftUpLeg -27.504428 -10.80850466 18.57415533
LeftLeg 88.80702802 -2.589742338 6.278004567
LeftFoot 7.603963809 -19.27072853 -13.96229173
LeftToes 4.94765e-010 2.02697e-011 4.00889e-011
175
root 83.12644996 20.03463637 -92.33508353 -173.1045611 75.82331812 143.4661841
RightUpLeg -59.3901885 -11.33257645 4.94592523
RightLeg 123.1805648 0 0
RightFoot -39.56973392 -0.3326269722 -22.23196982
RightToes 1.74622e-010 -3.18055e-015 8.94531e-016
Spine 53.28256195 -0.08657104228 -1.657648247
Spine1 -16.09620176 -1.587073214 11.76106293
HEad -65.16247795 -5.341828499 9.766878624
LeftShoulder1 0 -2.69403e-036 -1.28585e-037
LeftArm 8.616949349 -56.37962776 -101.9259334
LeftForeArm 17.72956994 -0.1570882185 0.424040264
LeftHand -2.720422094 -0.229535845 36.91071149
RightShoulder -2.48481e-017 0 -8.08114e-019
RightArm 17.70633032 -0.4745628871 85.5210014
RightForeArm -3.420678077 19.00231782 -20.82029157
RightHand 6.812835583 -19.21182689 -39.58768827
LeftUpLeg -33.71982465 -10.35402548 18.08091449
LeftLeg 96.07658571 -4.107404902 6.860435608
LeftFoot 8.094682372 -18.39800021 -13.37087083
LeftToes 4.94765e-010 2.02697e-011 4.00889e-011
176
root 84.07771323 20.21643629 -92.76470879 -171.4802238 77.85211833 144.5428398
RightUpLeg -56.7049407 -9.564123856 2.347348869
RightLeg 120.8733904 0 0
RightFoot -39.8526479 4.029537206 -22.17845405
RightToes 1.74622e-010 -3.18055e-015 8.94531e-016
Spine 53.23066115 0.4687564706 -1.279237279
Spine1 -16.22159139 -0.8417241345 11.44043707
HEad -65.62711866 -5.834343712 9.79732578
LeftShoulder1 0 -2.69403e-036 -1.28585e-037
LeftArm 6.386470119 -54.62499665 -102.4677208
LeftForeArm 20.02794847 -0.3169469176 0.08344300962
LeftHand -3.10142345 -0.3841430851 40.27844181
RightShoulder -2.48481e-017 0 -8.08114e-019
RightArm 14.73137417 -0.07615425252 83.22790299
RightForeArm -1.079006942 22.46362223 -24.45488294
RightHand 6.708776763 -19.08022608 -39.31549974
LeftUpLeg -39.73207743 -10.2258672 18.22768489
LeftLeg 104.0612192 -5.10993996 5.275256071
LeftFoot 7.814885501 -18.66421056 -9.544243892
LeftToes 4.94765e-010 2.02697e-011 4.00889e-011
177
root 85.02142227 20.25197364 -93.23718273 -167.4834129 80.94685298 148.370733
RightUpLeg -54.01777931 -6.669224826 0.1301413109
RightLeg 118.7251598 0 0
RightFoot -40.39359965 8.126144747 -22.39350559
RightToes 1.74622e-010 -3.18055e-015 8.94531e-016
Spine 52.95058922 1.073887303 -0.2407210287
Spine1 -16.09977002 0.3722212206 9.081320048
HEad -65.793276 -6.412939803 10.47020807
LeftShoulder1 0 -2.69403e-036 -1.28585e-037
LeftArm 5.499253613 -52.6561645 -103.1081243
LeftForeArm 22.06836527 -0.6320352743 -0.7879009803
LeftHand -3.434383335 -0.5430749721 42.91086862
RightShoulder -2.48481e-017 0 -8.08114e-019
RightArm 10.59672582 2.908849412 80.14088339
RightForeArm 1.183022032 26.09304402 -26.89364369
RightHand 6.407857419 -18.73580697 -38.33148508
LeftUpLeg -45.40867849 -9.456120269 19.01949829
LeftLeg 111.9900847 -5.245656254 3.328165957
LeftFoot 5.816981911 -19.77758598 -3.830460919
LeftToes 4.94765e-010 2.02697e-011 4.00889e-011
178
root 85.96116383 20.17957647 -93.71278299 -156.515038 85.15289706 159.1560306
RightUpLeg -51.62628941 -2.940294834 -1.495554084
RightLeg 116.4925001 0 0
RightFoot -41.05066582 10.18662316 -22.92075471
RightToes 1.74622e-010 -3.18055e-015 8.94531e-016
Spine 52.64334282 1.81476108 1.076948758
Spine1 -16.37627693 1.978530308 4.434249425
HEad -65.29421999 -6.72742505 12.14975766
LeftShoulder1 0 -2.69403e-036 -1.28585e-037
LeftArm 5.906019605 -51.00419182 -104.646606
LeftForeArm 24.1348971 -0.9510160581 -1.666045555
LeftHand -3.652829383 -0.6520779866 44.51424971
RightShoulder -2.48481e-017 0 -8.08114e-019
RightArm 7.251421447 7.248823805 76.67135046
RightForeArm 1.218631101 28.24880177 -28.3549398
RightHand 6.077037531 -18.36679328 -37.13169728
LeftUpLeg -51.10885072 -7.590720421 20.37971195
LeftLeg 119.0042602 -4.903759088 2.240464379
LeftFoot 3.270974747 -20.66862893 -1.693823363
LeftToes 4.94765e-010 2.02697e-011 4.00889e-011
179
root 86.86804655 20.01918825 -94.17708573 -71.35594311 88.23896716 -115.5798037
RightUpLeg -49.20868204 1.001888886 -2.906524558
RightLeg 114.4308677 0 0
RightFoot -42.07385378 11.09720808 -22.97895954
RightToes 1.74622e-010 -3.18055e-015 8.94531e-016
Spine 52.86510236 2.594480428 2.688964192
Spine1 -17.25015532 3.748624174 -1.397574
HEad -64.71113567 -7.010750369 14.04419306
LeftShoulder1 0 -2.69403e-036 -1.28585e-037
LeftArm 6.569987395 -49.25166408 -106.7566256
LeftForeArm 26.64246894 -1.226644899 -2.349012393
LeftHand -3.83323865 -0.7173688352 45.95779144
RightShoulder -2.48481e-017 0 -8.08114e-019
RightArm 4.979715543 12.3671641 72.51063768
RightForeArm 0.04482624358 28.426683 -28.37243365
RightHand 5.761318352 -18.02867601 -35.84721364
LeftUpLeg -56.45799329 -4.959916646 22.1003086
LeftLeg 124.6596305 -3.908381872 1.086524221
LeftFoot 1.02303598 -22.00087358 0.9825463352
LeftToes 4.94765e-010 2.02697e-011 4.00889e-011
180
root 87.75718653 19.78820763 -94.61854684 -14.75697059 84.10406066 -58.14591039
RightUpLeg -46.27820592 5.090490864 -4.196750266
RightLeg 112.5853407 0 0
RightFoot -43.36110664 12.08104626 -22.22970616
RightToes 1.74622e-010 -3.18055e-015 8.94531e-016
Spine 53.81705288 3.186141972 4.892134268
Spine1 -18.06228801 5.561055322 -7.647506136
HEad -64.86098063 -7.505766062 15.2872832
LeftShoulder1 0 -2.69403e-036 -1.28585e-037
LeftArm 6.741033216 -47.05208691 -108.3324853
LeftForeArm 29.42552 -1.581120607 -3.21420722
LeftHand -4.012244904 -0.7763514983 47.40545817
RightShoulder -2.48481e-017 0 -8.08114e-019
RightArm 3.960249981 18.3897208 67.69394976
RightForeArm -0.894822142 26.12737729 -26.6556345
RightHand 5.411476337 -17.65156153 -34.32061418
LeftUpLeg -60.42050794 -2.036232502 23.87016529
LeftLeg 128.7827307 -2.123304746 -0.5290919453
LeftFoot -0.8858828352 -25.06034526 13.18074299
LeftToes 4.94765e-010 2.02697e-011 4.00889e-011
181
root 88.7360536 19.60328845 -94.9882438 -7.718833886 79.14468376 -49.75604995
RightUpLeg -42.93643802 9.468770187 -5.274334441
RightLeg 110.3262896 0 0
RightFoot -43.88277964 13.1400144 -21.17314164
RightToes 1.74622e-010 -3.18055e-015 8.94531e-016
Spine 55.19514067 3.53373477 7.311353332
Spine1 -18.05861229 7.427738479 -14.47167062
HEad -65.4902178 -8.192389564 15.77582152
LeftShoulder1 0 -2.69403e-036 -1.28585e-037
LeftArm 7.626788435 -44.71385563 -109.431065
LeftForeArm 31.00169388 -2.19253985 -4.00966533
LeftHand -4.155629763 -0.8334890835 48.48434531
RightShoulder -2.48481e-017 0 -8.08114e-019
RightArm 3.735816595 25.05797146 62.99859112
RightForeArm -1.696632754 21.30595767 -23.42254196
RightHand 5.146260054 -17.36935719 -33.06378917
LeftUpLeg -63.30161947 0.9969362594 26.02666665
LeftLeg 131.0605181 -1.186210903 -0.647406864
LeftFoot -2.83191993 -26.83731445 15.68743582
LeftToes 4.94765e-010 2.02697e-011 4.00889e-011
182
root 89.71549479 19.3779 -95.31137963 -7.903796194 74.71577539 -48.52177138
RightUpLeg -39.42085454 13.35651904 -5.551626009
RightLeg 107.9439794 0 0
RightFoot -43.76796638 13.78601347 -20.89832558
RightToes 1.74622e-010 -3.18055e-015 8.94531e-016
Spine 56.2133 3.11755 10.2429
Spine1 -17.2834 8.98439 -20.5724
HEad -65.6365 -8.87904 15.7548
LeftShoulder1 0 -2.69403e-036 -1.28585e-037
LeftArm 8.12929 -42.7428 -109.912
LeftForeArm 31.9648 -2.63583 -4.31939
LeftHand -4.28494 -0.884507 49.4454
RightShoulder -2.48481e-017 0 -8.08114e-019
RightArm -6.29002 31.8736 59.0086
RightForeArm 5.52903 16.7913 -16.3837
RightHand 4.91515 -17.1129 -31.941
LeftUpLeg -64.6835801 3.382655602 28.33534788
LeftLeg 132.3488063 -0.8433602501 0.008268102501
LeftFoot 0.4407909304 -29.52507765 14.92740208
LeftToes 4.94765e-010 2.02697e-011 4.00889e-011
183
root 90.74642124 19.1312 -95.53356022 -9.001526992 71.7254057 -48.290334
RightUpLeg -35.39638712 15.93174842 -5.473590781
RightLeg 105.3023651 0 0
RightFoot -43.77258758 13.97400407 -21.41359534
RightToes 1.74622e-010 -3.18055e-015 8.94531e-016
Spine 56.4857 2.12577 12.6233
Spine1 -15.7777 9.80204 -24.3402
HEad -65.2279 -9.42217 15.6518
LeftShoulder1 0 -2.69403e-036 -1.28585e-037
LeftArm 8.54067 -41.1352 -109.084
LeftForeArm 31.8472 -3.01639 -4.55597
LeftHand -4.45392 -0.943115 50.7211
RightShoulder -2.48481e-017 0 -8.08114e-019
RightArm -16.4391 38.4715 57.0788
RightForeArm 9.89182 11.5128 -11.5277
RightHand 4.36202 -16.3607 -29.4975
LeftUpLeg -64.91111999 4.218841025 29.64780367
LeftLeg 133.3529506 0 0
LeftFoot 7.069909218 -31.90566052 10.06149653
LeftToes 4.94765e-010 2.02697e-011 4.00889e-011
